<svg version="1.1" xmlns="http://www.w3.org/2000/svg" viewBox="0 0 2072.6291233102274 1565.5378976023126" width="4145.258246620455" height="3131.075795204625">
  <!-- svg-source:excalidraw -->
  
  <defs>
    <style class="style-fonts">
      @font-face {
        font-family: "Virgil";
        src: url("https://excalidraw.com/Virgil.woff2");
      }
      @font-face {
        font-family: "Cascadia";
        src: url("https://excalidraw.com/Cascadia.woff2");
      }
      @font-face {
        font-family: "Assistant";
        src: url("https://excalidraw.com/Assistant-Regular.woff2");
      }
    </style>
    
  </defs>
  <rect x="0" y="0" width="2072.6291233102274" height="1565.5378976023126" fill="#ffffff"></rect><g stroke-linecap="round" transform="translate(1041.1926739019268 490.66098763877454) rotate(0 510.7182247041503 248.17839687354692)"><path d="M-1.72 -1.6 L1021.9 1.62 L1022.17 496.44 L-1.75 497.97" stroke="none" stroke-width="0" fill="#a5d8ff"></path><path d="M0 0 C289.52 2.09, 580.54 1.2, 1021.44 0 M0 0 C314.06 0.69, 628.12 0.84, 1021.44 0 M1021.44 0 C1020.94 147.56, 1021.22 293.82, 1021.44 496.36 M1021.44 0 C1022.17 106, 1022.44 212.51, 1021.44 496.36 M1021.44 496.36 C718.54 494.61, 417.52 495.11, 0 496.36 M1021.44 496.36 C805.32 493.89, 589.67 493.83, 0 496.36 M0 496.36 C1.04 379.25, 2.28 261.94, 0 0 M0 496.36 C-1.44 331.62, -0.97 166.24, 0 0" stroke="#1e1e1e" stroke-width="4" fill="none"></path></g><g transform="translate(1518.3795553512682 429.1608784338) rotate(0 42.965972900390625 22.5)"><text x="0" y="0" font-family="Virgil, Segoe UI Emoji" font-size="36px" fill="#1e1e1e" text-anchor="start" style="white-space: pre;" direction="ltr" dominant-baseline="text-before-edge">Glide</text></g><g stroke-linecap="round" transform="translate(1072.9838336592575 559.8637580331141) rotate(0 223.0856749716047 186.50185216471186)"><path d="M0.9 -0.52 L444.88 -0.59 L446.44 372.96 L-0.8 374.48" stroke="none" stroke-width="0" fill="#ffffff"></path><path d="M0 0 C92.97 0.83, 185.49 -0.43, 446.17 0 M0 0 C157.79 0.01, 316.3 0.37, 446.17 0 M446.17 0 C444.75 118.38, 444.99 234.21, 446.17 373 M446.17 0 C443.5 97.91, 444.01 196.7, 446.17 373 M446.17 373 C345.11 370.74, 242.9 370.21, 0 373 M446.17 373 C354.52 374.88, 263.23 374.76, 0 373 M0 373 C-1.11 296.59, -1.46 220.81, 0 0 M0 373 C-0.84 276.9, -0.25 179.92, 0 0" stroke="#1e1e1e" stroke-width="4" fill="none"></path></g><g transform="translate(1176.5912795575487 514.6274684232214) rotate(0 114.24597167968756 22.5)"><text x="0" y="0" font-family="Virgil, Segoe UI Emoji" font-size="36px" fill="#1e1e1e" text-anchor="start" style="white-space: pre;" direction="ltr" dominant-baseline="text-before-edge">Lang Router1</text></g><g transform="translate(1543.8726676617239 720.6430682568792) rotate(0 14.795997619628906 22.5)"><text x="0" y="0" font-family="Virgil, Segoe UI Emoji" font-size="36px" fill="#1e1e1e" text-anchor="start" style="white-space: pre;" direction="ltr" dominant-baseline="text-before-edge">...</text></g><g stroke-linecap="round" transform="translate(1610.9282302060951 572.6202822080033) rotate(0 210.41362598269325 178.14118290539642)"><path d="M-1.75 0.48 L421.44 1.7 L422.54 357.42 L0.68 355.54" stroke="none" stroke-width="0" fill="#ffffff"></path><path d="M0 0 C143.71 -0.32, 288.6 -0.29, 420.83 0 M0 0 C92.1 2.3, 184.94 1.9, 420.83 0 M420.83 0 C423.9 94.03, 423 184.89, 420.83 356.28 M420.83 0 C421.73 90.54, 421.74 181.22, 420.83 356.28 M420.83 356.28 C319.69 354.72, 217.9 354.15, 0 356.28 M420.83 356.28 C260.55 356.98, 99.64 356.97, 0 356.28 M0 356.28 C-1.56 271.05, -2.27 183.17, 0 0 M0 356.28 C0.15 229.09, -0.44 102.3, 0 0" stroke="#1e1e1e" stroke-width="4" fill="none"></path></g><g transform="translate(1753.9851118320303 516.9018915581096) rotate(0 80.74797821044922 22.5)"><text x="0" y="0" font-family="Virgil, Segoe UI Emoji" font-size="36px" fill="#1e1e1e" text-anchor="start" style="white-space: pre;" direction="ltr" dominant-baseline="text-before-edge">Router N</text></g><g stroke-linecap="round" transform="translate(1159.9813841619998 680.2697734271757) rotate(0 125.28329567291183 94.76104939257925)"><path d="M0 0 C90.93 0.34, 178.91 2.29, 250.57 0 M0 0 C55.37 0.22, 110.24 -0.51, 250.57 0 M250.57 0 C250.53 40.8, 250.35 82.89, 250.57 189.52 M250.57 0 C249.83 60.63, 250.04 121.09, 250.57 189.52 M250.57 189.52 C174.49 190.22, 96.89 191.39, 0 189.52 M250.57 189.52 C156.14 191.21, 61.32 190.99, 0 189.52 M0 189.52 C2.03 121.18, 2.4 57.79, 0 0 M0 189.52 C1.17 117.59, 0 45.99, 0 0" stroke="#1e1e1e" stroke-width="4" fill="none"></path></g><g transform="translate(1220.871780022613 640.9279857203865) rotate(0 61.77995300292963 12.5)"><text x="0" y="0" font-family="Virgil, Segoe UI Emoji" font-size="20px" fill="#1e1e1e" text-anchor="start" style="white-space: pre;" direction="ltr" dominant-baseline="text-before-edge">/chatStream</text></g><g transform="translate(1410.5504105360042 574.1405717608823) rotate(0 44.629981994628906 12.5)"><text x="0" y="0" font-family="Virgil, Segoe UI Emoji" font-size="20px" fill="#1e1e1e" text-anchor="start" style="white-space: pre;" direction="ltr" dominant-baseline="text-before-edge">/v1/lang/1</text></g><g transform="translate(1920.2037830148274 582.6404982962723) rotate(0 48.35997772216797 12.5)"><text x="0" y="0" font-family="Virgil, Segoe UI Emoji" font-size="20px" fill="#1e1e1e" text-anchor="start" style="white-space: pre;" direction="ltr" dominant-baseline="text-before-edge">/v1/lang/N</text></g><g stroke-linecap="round" transform="translate(1124.4340311003311 1107.5935588279456) rotate(0 149.3598397311377 37.73510413084921)"><path d="M1.79 0.14 L297.23 -0.57 L297.8 77.19 L0.2 76.62" stroke="none" stroke-width="0" fill="#e9ecef"></path><path d="M0 0 C117.28 -0.1, 238.42 1.04, 298.72 0 M0 0 C104.85 -1.6, 209.43 -2.4, 298.72 0 M298.72 0 C300.33 26.58, 298.25 51.85, 298.72 75.47 M298.72 0 C298.48 28.65, 298.14 55.87, 298.72 75.47 M298.72 75.47 C211.64 77.34, 126.78 75.2, 0 75.47 M298.72 75.47 C220.77 74.97, 144.07 74.1, 0 75.47 M0 75.47 C1.03 55.01, 0.33 36.34, 0 0 M0 75.47 C-0.77 57.6, -0.24 42.26, 0 0" stroke="#1e1e1e" stroke-width="4" fill="none"></path></g><g transform="translate(1290.233151919139 1108.6104265963131) rotate(0 61.38994598388672 12.5)"><text x="0" y="0" font-family="Virgil, Segoe UI Emoji" font-size="20px" fill="#1e1e1e" text-anchor="start" style="white-space: pre;" direction="ltr" dominant-baseline="text-before-edge">Chatbot App</text></g><g stroke-linecap="round"><g transform="translate(1278.0013560253442 1100.2462671299381) rotate(0 -0.6665889645369134 -113.01473085358475)"><path d="M0 0 C1.51 -83.53, 2.06 -164.19, -1.33 -226.03" stroke="#1e1e1e" stroke-width="4.5" fill="none" stroke-dasharray="8 12"></path></g><g transform="translate(1278.0013560253442 1100.2462671299381) rotate(0 -0.6665889645369134 -113.01473085358475)"><path d="M-8.45 -23.53 C-4.98 -15.84, -0.69 -4.87, 0 0" stroke="#1e1e1e" stroke-width="4.5" fill="none"></path></g><g transform="translate(1278.0013560253442 1100.2462671299381) rotate(0 -0.6665889645369134 -113.01473085358475)"><path d="M8.65 -23.45 C5.87 -15.93, 3.9 -4.98, 0 0" stroke="#1e1e1e" stroke-width="4.5" fill="none"></path></g><g transform="translate(1278.0013560253442 1100.2462671299381) rotate(0 -0.6665889645369134 -113.01473085358475)"><path d="M8.02 -202.84 C5.34 -212.38, 3.12 -218.5, -1.33 -226.03" stroke="#1e1e1e" stroke-width="4.5" fill="none"></path></g><g transform="translate(1278.0013560253442 1100.2462671299381) rotate(0 -0.6665889645369134 -113.01473085358475)"><path d="M-9.07 -202.26 C-5.49 -211.88, -1.46 -218.21, -1.33 -226.03" stroke="#1e1e1e" stroke-width="4.5" fill="none"></path></g></g><mask></mask><g transform="translate(1174.2882959779186 1016.1465474040597) rotate(0 173.99981689453125 12.5)"><text x="0" y="0" font-family="Virgil, Segoe UI Emoji" font-size="20px" fill="#1e1e1e" text-anchor="start" style="white-space: pre;" direction="ltr" dominant-baseline="text-before-edge">websocket (bi-directional, long-living)</text></g><g stroke-linecap="round" transform="translate(985.7003296804653 1365.4307384840758) rotate(0 61.528697914448 62.0331951697392)"><path d="M51.68 0.13 C60.53 -2.49, 71.21 -0.93, 80.15 1.98 C89.08 4.89, 98.47 10.74, 105.31 17.59 C112.14 24.44, 118.25 33.7, 121.15 43.09 C124.05 52.47, 124.69 64.13, 122.71 73.89 C120.72 83.65, 115.24 94.06, 109.21 101.67 C103.19 109.28, 95.26 115.97, 86.57 119.54 C77.88 123.11, 66.74 123.85, 57.06 123.09 C47.38 122.33, 36.5 120.03, 28.5 114.97 C20.51 109.92, 13.8 100.9, 9.12 92.77 C4.43 84.64, 0.84 75.72, 0.4 66.17 C-0.04 56.63, 2.54 44.22, 6.45 35.48 C10.37 26.74, 15.62 19.63, 23.88 13.74 C32.14 7.84, 49.63 2.03, 56.04 0.1 C62.44 -1.84, 62.27 1.13, 62.31 2.11 M41.1 2.51 C49.68 -1.81, 60.82 -1.52, 70.29 -0.32 C79.76 0.88, 90.16 4.04, 97.91 9.73 C105.67 15.42, 112.56 24.83, 116.84 33.82 C121.12 42.81, 123.76 53.93, 123.59 63.68 C123.41 73.43, 120.55 84.09, 115.78 92.33 C111.01 100.58, 102.81 107.72, 94.94 113.16 C87.08 118.6, 77.81 124.04, 68.57 124.98 C59.33 125.92, 48.27 122.48, 39.52 118.79 C30.76 115.1, 22.51 109.97, 16.02 102.85 C9.53 95.74, 2.73 85.61, 0.59 76.09 C-1.55 66.57, 0.62 55, 3.16 45.74 C5.7 36.48, 9.81 27.54, 15.83 20.54 C21.86 13.55, 35.41 6.18, 39.32 3.75 C43.23 1.32, 38.75 4.72, 39.27 5.96" stroke="none" stroke-width="0" fill="#b2f2bb"></path><path d="M59.92 -0.75 C68.95 -2.01, 78.64 1.7, 87.17 5.94 C95.7 10.18, 105.4 16.93, 111.11 24.68 C116.82 32.43, 120.01 43, 121.43 52.44 C122.85 61.87, 122.53 72.11, 119.63 81.29 C116.73 90.47, 110.97 100.94, 104.02 107.51 C97.07 114.08, 87.06 118.16, 77.95 120.71 C68.85 123.27, 58.73 124.53, 49.39 122.83 C40.05 121.12, 29.21 116.5, 21.91 110.48 C14.61 104.45, 9.25 95.45, 5.58 86.67 C1.91 77.88, -0.72 67.57, -0.11 57.76 C0.49 47.96, 4.04 36, 9.23 27.84 C14.41 19.67, 21.63 13.33, 31.01 8.78 C40.39 4.24, 58.46 1.79, 65.5 0.57 C72.54 -0.65, 73.25 0.47, 73.26 1.47 M60.39 -0.08 C69.43 -0.67, 80.78 3.37, 89.31 7.68 C97.84 12, 105.97 18.16, 111.57 25.82 C117.17 33.49, 121.54 44.2, 122.91 53.68 C124.28 63.17, 123.22 73.75, 119.79 82.74 C116.36 91.74, 109.52 101.05, 102.33 107.64 C95.14 114.22, 85.81 119.92, 76.64 122.25 C67.47 124.57, 56.49 123.78, 47.3 121.58 C38.1 119.37, 28.72 115.12, 21.47 109.01 C14.22 102.89, 7.3 93.83, 3.79 84.89 C0.28 75.94, -0.89 65.23, 0.42 55.35 C1.72 45.47, 6.03 33.51, 11.62 25.62 C17.22 17.73, 25.85 12.27, 34 8 C42.14 3.73, 55.92 1, 60.47 0 C65.02 -0.99, 60.99 1.16, 61.3 2.02" stroke="#1e1e1e" stroke-width="4" fill="none"></path></g><g transform="translate(1017.4616964433762 1415.0998406906238) rotate(0 29.759971618652344 12.5)"><text x="29.759971618652344" y="0" font-family="Virgil, Segoe UI Emoji" font-size="20px" fill="#1e1e1e" text-anchor="middle" style="white-space: pre;" direction="ltr" dominant-baseline="text-before-edge">Client1</text></g><g stroke-linecap="round" transform="translate(1444.1983604489205 1359.196457583781) rotate(0 61.528697914448 62.0331951697392)"><path d="M84.87 3.58 C93.72 6.06, 101.66 14.74, 107.63 22.18 C113.6 29.62, 118.57 38.88, 120.7 48.21 C122.82 57.54, 122.64 68.95, 120.38 78.18 C118.11 87.42, 113.33 96.49, 107.09 103.62 C100.86 110.75, 92.03 117.68, 82.96 120.96 C73.89 124.24, 62.19 124.52, 52.68 123.3 C43.17 122.09, 33.47 119.3, 25.91 113.68 C18.35 108.06, 11.51 98.41, 7.33 89.59 C3.16 80.77, 0.71 70.3, 0.85 60.79 C0.98 51.27, 3.96 40.92, 8.17 32.52 C12.38 24.11, 18.38 15.59, 26.12 10.35 C33.86 5.11, 44.35 1.83, 54.62 1.06 C64.89 0.3, 81.38 4.23, 87.74 5.77 C94.09 7.31, 93.08 9.22, 92.76 10.29 M60.42 1.09 C69.18 -0.16, 81.14 2.13, 89.63 6.31 C98.12 10.5, 105.92 18.1, 111.35 26.2 C116.77 34.3, 120.98 45.11, 122.19 54.92 C123.41 64.74, 122.15 76.14, 118.62 85.09 C115.09 94.05, 107.94 102.69, 101.02 108.65 C94.09 114.62, 86.16 118.81, 77.08 120.87 C68 122.94, 55.82 122.91, 46.52 121.05 C37.22 119.19, 28.44 115.72, 21.26 109.71 C14.08 103.7, 7.04 94.37, 3.43 84.99 C-0.18 75.62, -1.74 62.92, -0.42 53.45 C0.9 43.97, 5.8 35.61, 11.35 28.12 C16.89 20.62, 24.61 13.26, 32.84 8.48 C41.07 3.69, 55.98 0.69, 60.73 -0.59 C65.48 -1.87, 61.12 -0.3, 61.36 0.81" stroke="none" stroke-width="0" fill="#b2f2bb"></path><path d="M33.6 6.31 C41.13 1.37, 52.36 0.03, 61.8 0.31 C71.25 0.59, 81.92 3.45, 90.28 7.98 C98.63 12.52, 106.71 19.77, 111.94 27.49 C117.17 35.21, 120.47 44.78, 121.65 54.32 C122.83 63.85, 122.2 75.85, 119 84.72 C115.8 93.58, 109.49 101.3, 102.47 107.52 C95.46 113.75, 86.28 119.69, 76.91 122.08 C67.54 124.48, 55.44 124.29, 46.25 121.9 C37.06 119.52, 28.78 114.06, 21.78 107.76 C14.78 101.46, 7.86 92.95, 4.24 84.09 C0.62 75.24, -0.92 64.06, 0.05 54.64 C1.03 45.21, 2.81 36.02, 10.08 27.53 C17.35 19.05, 36.16 8.03, 43.67 3.72 C51.19 -0.59, 54.97 0.98, 55.17 1.68 M69.63 -0.59 C78.58 -0.11, 90.25 5.94, 97.97 11.89 C105.68 17.85, 111.67 26.42, 115.89 35.14 C120.11 43.87, 123.46 54.7, 123.3 64.23 C123.13 73.76, 119.42 83.91, 114.88 92.33 C110.34 100.74, 103.85 109.49, 96.06 114.71 C88.26 119.93, 78.01 123.1, 68.11 123.66 C58.21 124.22, 45.72 121.95, 36.67 118.07 C27.62 114.18, 19.58 107.42, 13.83 100.36 C8.08 93.3, 3.96 85.01, 2.18 75.71 C0.4 66.41, 0.7 54.07, 3.14 44.55 C5.57 35.03, 10.22 25.39, 16.8 18.59 C23.37 11.79, 33.46 6.65, 42.58 3.74 C51.7 0.84, 67 1.5, 71.53 1.15 C76.07 0.8, 69.94 0.56, 69.8 1.67" stroke="#1e1e1e" stroke-width="4" fill="none"></path></g><g transform="translate(1471.5497311791169 1408.8655597903294) rotate(0 34.16996765136719 12.5)"><text x="34.16996765136719" y="0" font-family="Virgil, Segoe UI Emoji" font-size="20px" fill="#1e1e1e" text-anchor="middle" style="white-space: pre;" direction="ltr" dominant-baseline="text-before-edge">Client2</text></g><g stroke-linecap="round"><g transform="translate(1080.6748562476346 1373.9147409618304) rotate(0 69.64676090875855 -94.92548693609314)"><path d="M0 0 C55.9 -77.79, 110.49 -150.36, 139.29 -189.85 M0 0 C36.3 -51.19, 74.39 -100, 139.29 -189.85" stroke="#1e1e1e" stroke-width="4" fill="none"></path></g><g transform="translate(1080.6748562476346 1373.9147409618304) rotate(0 69.64676090875855 -94.92548693609314)"><path d="M132.34 -165.84 C134.62 -177.22, 136.31 -183.13, 139.29 -189.85 M132.34 -165.84 C133.4 -173.1, 136.68 -177.74, 139.29 -189.85" stroke="#1e1e1e" stroke-width="4" fill="none"></path></g><g transform="translate(1080.6748562476346 1373.9147409618304) rotate(0 69.64676090875855 -94.92548693609314)"><path d="M118.53 -175.93 C126.25 -183.37, 133.45 -185.26, 139.29 -189.85 M118.53 -175.93 C123.24 -180.54, 130.18 -182.51, 139.29 -189.85" stroke="#1e1e1e" stroke-width="4" fill="none"></path></g></g><mask></mask><g stroke-linecap="round"><g transform="translate(1479.4493761479748 1364.0328028615108) rotate(0 -79.67320913750461 -89.47909475001637)"><path d="M0 0 C-48.86 -53.74, -99.55 -110.09, -159.35 -178.96 M0 0 C-47.15 -54.03, -94.85 -107.74, -159.35 -178.96" stroke="#1e1e1e" stroke-width="4" fill="none"></path></g><g transform="translate(1479.4493761479748 1364.0328028615108) rotate(0 -79.67320913750461 -89.47909475001637)"><path d="M-137.27 -167.23 C-142.77 -169.7, -152.12 -175.54, -159.35 -178.96 M-137.27 -167.23 C-143.37 -170.67, -150.09 -174.5, -159.35 -178.96" stroke="#1e1e1e" stroke-width="4" fill="none"></path></g><g transform="translate(1479.4493761479748 1364.0328028615108) rotate(0 -79.67320913750461 -89.47909475001637)"><path d="M-149.97 -155.78 C-151.72 -161.72, -157.2 -171.04, -159.35 -178.96 M-149.97 -155.78 C-152.27 -162.57, -155.2 -169.82, -159.35 -178.96" stroke="#1e1e1e" stroke-width="4" fill="none"></path></g></g><mask></mask><g transform="translate(1450.4341429499273 1271.6823535866665) rotate(0 170.00790405273438 10)"><text x="0" y="0" font-family="Virgil, Segoe UI Emoji" font-size="16px" fill="#1e1e1e" text-anchor="start" style="white-space: pre;" direction="ltr" dominant-baseline="text-before-edge">What's the capital of The United Kingdom?</text></g><g transform="translate(959.2579055737355 1243.975927267015) rotate(0 81.96794891357422 20)"><text x="0" y="0" font-family="Virgil, Segoe UI Emoji" font-size="16px" fill="#1e1e1e" text-anchor="start" style="white-space: pre;" direction="ltr" dominant-baseline="text-before-edge">How big is Texas</text><text x="0" y="20" font-family="Virgil, Segoe UI Emoji" font-size="16px" fill="#1e1e1e" text-anchor="start" style="white-space: pre;" direction="ltr" dominant-baseline="text-before-edge">compared to Europe?</text></g><g transform="translate(1082.4314994985525 1495.5378976023126) rotate(0 239.6958465576172 30)"><text x="0" y="0" font-family="Virgil, Segoe UI Emoji" font-size="16px" fill="#868e96" text-anchor="start" style="white-space: pre;" direction="ltr" dominant-baseline="text-before-edge">multiple-clients send</text><text x="0" y="20" font-family="Virgil, Segoe UI Emoji" font-size="16px" fill="#868e96" text-anchor="start" style="white-space: pre;" direction="ltr" dominant-baseline="text-before-edge">- request + listen to ws provided by app </text><text x="0" y="40" font-family="Virgil, Segoe UI Emoji" font-size="16px" fill="#868e96" text-anchor="start" style="white-space: pre;" direction="ltr" dominant-baseline="text-before-edge">- or just use bi-directional ws connection just like Glide API</text></g><g stroke-linecap="round"><g transform="translate(1236.182993721652 1187.3759584953004) rotate(0 -71.43532598205002 96.87641924908104)"><path d="M0 0 C-40.44 53.1, -74.93 103.7, -142.87 193.75" stroke="#1e1e1e" stroke-width="4.5" fill="none" stroke-dasharray="8 12"></path></g><g transform="translate(1236.182993721652 1187.3759584953004) rotate(0 -71.43532598205002 96.87641924908104)"><path d="M-135.72 169.8 C-139.52 177.95, -137.83 183.98, -142.87 193.75" stroke="#1e1e1e" stroke-width="4.5" fill="none"></path></g><g transform="translate(1236.182993721652 1187.3759584953004) rotate(0 -71.43532598205002 96.87641924908104)"><path d="M-121.99 180 C-129.3 185.56, -131.2 188.93, -142.87 193.75" stroke="#1e1e1e" stroke-width="4.5" fill="none"></path></g></g><mask></mask><g stroke-linecap="round"><g transform="translate(1305.2807332337866 1191.6787344586571) rotate(0 82.30756447481019 90.49944569738221)"><path d="M0 0 C63.61 69.91, 126.25 139.37, 164.62 181" stroke="#1e1e1e" stroke-width="4.5" fill="none" stroke-dasharray="8 12"></path></g><g transform="translate(1305.2807332337866 1191.6787344586571) rotate(0 82.30756447481019 90.49944569738221)"><path d="M142.45 169.43 C151.58 174.3, 158.33 177.45, 164.62 181" stroke="#1e1e1e" stroke-width="4.5" fill="none"></path></g><g transform="translate(1305.2807332337866 1191.6787344586571) rotate(0 82.30756447481019 90.49944569738221)"><path d="M155.07 157.89 C159.2 167.36, 161.03 175.01, 164.62 181" stroke="#1e1e1e" stroke-width="4.5" fill="none"></path></g></g><mask></mask><g transform="translate(1328.3791670555247 1297.9330125562597) rotate(0 25.67999267578125 10)"><text x="0" y="0" font-family="Virgil, Segoe UI Emoji" font-size="16px" fill="#1e1e1e" text-anchor="start" style="white-space: pre;" direction="ltr" dominant-baseline="text-before-edge">London</text></g><g transform="translate(1144.9722913862993 1320.4909229497302) rotate(0 56.12797546386719 20)"><text x="0" y="0" font-family="Virgil, Segoe UI Emoji" font-size="16px" fill="#1e1e1e" text-anchor="start" style="white-space: pre;" direction="ltr" dominant-baseline="text-before-edge">it's bigger </text><text x="0" y="20" font-family="Virgil, Segoe UI Emoji" font-size="16px" fill="#1e1e1e" text-anchor="start" style="white-space: pre;" direction="ltr" dominant-baseline="text-before-edge">than you think</text></g><g transform="translate(1301.7822470785995 1047.3705173249555) rotate(0 285.62384033203125 20)"><text x="0" y="0" font-family="Virgil, Segoe UI Emoji" font-size="16px" fill="#868e96" text-anchor="start" style="white-space: pre;" direction="ltr" dominant-baseline="text-before-edge">a specific app establishes one long-living ws connection per functionality </text><text x="0" y="20" font-family="Virgil, Segoe UI Emoji" font-size="16px" fill="#868e96" text-anchor="start" style="white-space: pre;" direction="ltr" dominant-baseline="text-before-edge">(lang/chatStream, speech/listen, speech/speak)</text></g><g stroke-linecap="round"><g transform="translate(1160.6061010382534 771.7358035609885) rotate(0 -159.33229472723144 -0.6432938616057982)"><path d="M0 0 C-99.57 0.32, -200.79 -1.77, -318.66 -1.29" stroke="#1e1e1e" stroke-width="4.5" fill="none" stroke-dasharray="8 12"></path></g></g><mask></mask><g stroke-linecap="round" transform="translate(38.414993184435446 512.058189021888) rotate(0 405.5423162788004 256.55948993173007)"><path d="M0 0 C188.91 2.07, 376.36 2.3, 811.08 0 M0 0 C243.72 0.44, 488.17 0.35, 811.08 0 M811.08 0 C810.39 166.61, 810.02 334.27, 811.08 513.12 M811.08 0 C811.42 174.56, 811.9 348.46, 811.08 513.12 M811.08 513.12 C592.82 512.89, 372.92 512.35, 0 513.12 M811.08 513.12 C577.04 513.08, 343.33 513.02, 0 513.12 M0 513.12 C-1.84 359.43, -1.72 204.37, 0 0 M0 513.12 C-1.81 384.18, -1.18 254.92, 0 0" stroke="#1e1e1e" stroke-width="4" fill="none"></path></g><g stroke-linecap="round" transform="translate(138.91489670199053 803.7687616166879) rotate(0 262.4365826357307 93.05963432684024)"><path d="M0 0 C144.46 0.76, 289.23 1.11, 524.87 0 M0 0 C187.47 -0.97, 374.37 -0.92, 524.87 0 M524.87 0 C526.14 42.2, 527.92 83.59, 524.87 186.12 M524.87 0 C524.75 72.22, 524.27 145.07, 524.87 186.12 M524.87 186.12 C320.25 184.79, 116.16 185.12, 0 186.12 M524.87 186.12 C382.84 185.16, 241.72 184.81, 0 186.12 M0 186.12 C-1.93 112.05, 0.01 38.23, 0 0 M0 186.12 C-0.96 149.09, -0.75 110.15, 0 0" stroke="#1e1e1e" stroke-width="4" fill="none"></path></g><g transform="translate(472.3350264245978 954.3154775166125) rotate(0 91.6599349975586 12.5)"><text x="0" y="0" font-family="Virgil, Segoe UI Emoji" font-size="20px" fill="#1e1e1e" text-anchor="start" style="white-space: pre;" direction="ltr" dominant-baseline="text-before-edge">Main WS Goroutine</text></g><g stroke-linecap="round" transform="translate(461.50434574612564 579.4934130434737) rotate(0 87.32972893042762 104.95519341264765)"><path d="M0 0 C46.96 0.92, 96.46 1.83, 174.66 0 M0 0 C68.28 1.87, 137.04 1.25, 174.66 0 M174.66 0 C174.29 41.87, 172.87 85.71, 174.66 209.91 M174.66 0 C175.63 54.03, 175.55 108.22, 174.66 209.91 M174.66 209.91 C112.51 207.49, 48.31 208.78, 0 209.91 M174.66 209.91 C131.59 209.63, 87.04 209.28, 0 209.91 M0 209.91 C-0.12 131.25, 2.08 51.54, 0 0 M0 209.91 C1 140.19, 0.51 71.71, 0 0" stroke="#1e1e1e" stroke-width="4" fill="none"></path></g><g transform="translate(290.34264353200274 596.6648636717691) rotate(0 69.26396179199219 10)"><text x="0" y="0" font-family="Virgil, Segoe UI Emoji" font-size="16px" fill="#1e1e1e" text-anchor="start" style="white-space: pre;" direction="ltr" dominant-baseline="text-before-edge">Worker Goroutine1</text></g><g transform="translate(483.5605418081327 589.7101533482621) rotate(0 72.79196166992188 10)"><text x="0" y="0" font-family="Virgil, Segoe UI Emoji" font-size="16px" fill="#1e1e1e" text-anchor="start" style="white-space: pre;" direction="ltr" dominant-baseline="text-before-edge">Worker Goroutine2</text></g><g transform="translate(285.6464481822095 677.568759001252) rotate(0 75.79193115234375 20)"><text x="0" y="0" font-family="Virgil, Segoe UI Emoji" font-size="16px" fill="#1e1e1e" text-anchor="start" style="white-space: pre;" direction="ltr" dominant-baseline="text-before-edge">Processing: </text><text x="0" y="20" font-family="Virgil, Segoe UI Emoji" font-size="16px" fill="#1e1e1e" text-anchor="start" style="white-space: pre;" direction="ltr" dominant-baseline="text-before-edge">"how big is Texas.."</text></g><g transform="translate(467.02466330345123 696.2353831627263) rotate(0 82.63992309570312 20)"><text x="0" y="0" font-family="Virgil, Segoe UI Emoji" font-size="16px" fill="#1e1e1e" text-anchor="start" style="white-space: pre;" direction="ltr" dominant-baseline="text-before-edge">Processing: </text><text x="0" y="20" font-family="Virgil, Segoe UI Emoji" font-size="16px" fill="#1e1e1e" text-anchor="start" style="white-space: pre;" direction="ltr" dominant-baseline="text-before-edge">"what's the capital.."</text></g><g stroke-linecap="round"><g transform="translate(269.2682738887488 873.3550154938185) rotate(0 -0.2728821344982144 118.54615759730115)"><path d="M0 0 C-1.2 80.04, -1.99 158.81, -0.55 237.09 M0 0 C1.19 94.25, 0.22 187.8, -0.55 237.09" stroke="#1e1e1e" stroke-width="4" fill="none"></path></g><g transform="translate(269.2682738887488 873.3550154938185) rotate(0 -0.2728821344982144 118.54615759730115)"><path d="M-8.81 213.5 C-5.38 221.89, -3.33 228.81, -0.55 237.09 M-8.81 213.5 C-4.48 223.08, -2.11 231.91, -0.55 237.09" stroke="#1e1e1e" stroke-width="4" fill="none"></path></g><g transform="translate(269.2682738887488 873.3550154938185) rotate(0 -0.2728821344982144 118.54615759730115)"><path d="M8.29 213.71 C5.98 222.09, 2.29 228.93, -0.55 237.09 M8.29 213.71 C5.84 223.35, 1.44 232.09, -0.55 237.09" stroke="#1e1e1e" stroke-width="4" fill="none"></path></g></g><mask></mask><g transform="translate(132.6531368717085 1127.5693767366713) rotate(0 132.4998779296875 12.5)"><text x="0" y="0" font-family="Virgil, Segoe UI Emoji" font-size="20px" fill="#1e1e1e" text-anchor="start" style="white-space: pre;" direction="ltr" dominant-baseline="text-before-edge">Unified Response Messages</text></g><g stroke-linecap="round" transform="translate(271.41350554550155 581.3289929637691) rotate(0 87.32972893042762 104.95519341264765)"><path d="M0 0 C63.59 -0.37, 128.45 0.57, 174.66 0 M0 0 C38.4 -0.35, 79.33 0.65, 174.66 0 M174.66 0 C175.92 72.67, 175.38 144.59, 174.66 209.91 M174.66 0 C175.72 44.51, 175.72 86.96, 174.66 209.91 M174.66 209.91 C135.02 209.17, 96.34 209.99, 0 209.91 M174.66 209.91 C113.56 211.32, 52.22 212.02, 0 209.91 M0 209.91 C1.58 144.84, -1.38 78.27, 0 0 M0 209.91 C0.43 158.74, -0.05 106.04, 0 0" stroke="#1e1e1e" stroke-width="4" fill="none"></path></g><g stroke-linecap="round" transform="translate(184.33292158370148 731.1976422297466) rotate(0 84.49381394327929 71.50626646972177)"><path d="M85.76 0.88 L167.93 71.24 L85.14 141.12 L-0.08 71.37" stroke="none" stroke-width="0" fill="#a5d8ff" fill-rule="evenodd"></path><path d="M85 0 C108.13 16.53, 127.28 35.74, 168.99 72 M85 0 C110.75 21.73, 134.66 43.67, 168.99 72 M168.99 72 C151.61 89.24, 131.09 105.75, 85 143.01 M168.99 72 C145.52 91.72, 123.66 109.94, 85 143.01 M85 143.01 C59.8 123.15, 35.69 99.7, 0 72 M85 143.01 C65.37 126.88, 45.9 111.19, 0 72 M0 72 C22.44 54.2, 42.18 35.61, 85 0 M0 72 C27.55 48.62, 52.42 27.46, 85 0" stroke="#1e1e1e" stroke-width="4" fill="none"></path></g><g transform="translate(233.0898535797552 790.4507754646075) rotate(0 35.48997497558594 12.5)"><text x="35.48997497558594" y="0" font-family="Virgil, Segoe UI Emoji" font-size="20px" fill="#1e1e1e" text-anchor="middle" style="white-space: pre;" direction="ltr" dominant-baseline="text-before-edge">Channel</text></g><g stroke-linecap="round" transform="translate(598.9039763932515 761.2797113843536) rotate(0 70.57137798344638 66.20082706905293)"><path d="M43.29 5.62 C51.77 1.09, 63.37 -0.88, 73.44 -0.33 C83.52 0.22, 94.8 4.43, 103.74 8.94 C112.67 13.45, 120.88 19.01, 127.03 26.73 C133.18 34.46, 138.87 45.72, 140.63 55.28 C142.39 64.85, 140.43 74.87, 137.57 84.13 C134.71 93.38, 129.92 103.55, 123.48 110.8 C117.03 118.05, 108.29 124.03, 98.88 127.61 C89.47 131.2, 77.29 132.86, 67 132.31 C56.71 131.77, 45.99 128.94, 37.11 124.34 C28.23 119.74, 19.62 112.55, 13.73 104.7 C7.83 96.85, 3.71 86.77, 1.75 77.24 C-0.21 67.71, -0.56 56.84, 1.97 47.53 C4.5 38.22, 8.64 28.86, 16.92 21.39 C25.2 13.92, 44.57 6.02, 51.63 2.71 C58.69 -0.61, 58.92 0.5, 59.29 1.51 M102.64 6.06 C111.96 9.34, 119.32 17.96, 125.54 25.46 C131.77 32.95, 137.75 41.83, 139.98 51.04 C142.21 60.26, 141.46 71.54, 138.92 80.74 C136.38 89.94, 131.29 98.57, 124.73 106.25 C118.17 113.92, 108.64 122.38, 99.58 126.79 C90.51 131.2, 80.08 133.05, 70.33 132.71 C60.57 132.36, 50.39 128.7, 41.02 124.71 C31.66 120.71, 20.84 115.98, 14.13 108.72 C7.41 101.47, 2.91 90.99, 0.74 81.18 C-1.43 71.37, -1.35 59.32, 1.1 49.85 C3.56 40.38, 8.89 31.57, 15.47 24.37 C22.06 17.16, 31.56 10.8, 40.6 6.63 C49.63 2.46, 59.48 -0.53, 69.68 -0.66 C79.87 -0.8, 96.32 4.52, 101.76 5.81 C107.21 7.09, 103.09 5.87, 102.34 7.04" stroke="none" stroke-width="0" fill="#ffc9c9"></path><path d="M101.52 6.67 C110.69 9.81, 119.72 18.83, 126.19 26.37 C132.67 33.91, 138.1 42.75, 140.38 51.94 C142.66 61.13, 142.26 72.15, 139.88 81.53 C137.49 90.91, 132.67 100.68, 126.06 108.21 C119.45 115.74, 109.66 122.73, 100.22 126.72 C90.78 130.71, 79.48 132.23, 69.42 132.16 C59.36 132.1, 49.09 130.43, 39.86 126.32 C30.63 122.2, 20.36 115.23, 14.06 107.5 C7.76 99.77, 3.94 89.41, 2.07 79.93 C0.19 70.45, 0.49 59.95, 2.82 50.62 C5.16 41.29, 9.75 31.37, 16.07 23.95 C22.38 16.53, 31.43 10.15, 40.71 6.12 C50 2.1, 59.72 -1.45, 71.76 -0.22 C83.8 1.01, 104.64 9.56, 112.96 13.5 C121.27 17.44, 122.46 22.46, 121.65 23.44 M91.28 2.3 C101.01 4.35, 111.66 11.37, 119.32 18.12 C126.99 24.87, 133.51 34.17, 137.26 42.8 C141.02 51.43, 142.98 60.7, 141.84 69.92 C140.7 79.14, 135.79 89.64, 130.43 98.11 C125.06 106.58, 118.15 115.32, 109.65 120.74 C101.15 126.16, 89.44 129.01, 79.44 130.6 C69.44 132.2, 59 132.86, 49.65 130.3 C40.3 127.74, 30.96 122.11, 23.35 115.24 C15.74 108.38, 7.91 98.18, 4 89.11 C0.08 80.04, -1.26 70.31, -0.15 60.83 C0.97 51.35, 5.66 40.3, 10.71 32.22 C15.76 24.14, 21.88 17.37, 30.15 12.34 C38.42 7.31, 50.14 3.67, 60.33 2.04 C70.52 0.41, 86.02 2.03, 91.29 2.58 C96.57 3.12, 92.21 4.23, 91.96 5.31" stroke="#1e1e1e" stroke-width="4" fill="none"></path></g><g transform="translate(634.0838794713379 802.6694847127213) rotate(0 35.48997497558594 25)"><text x="35.48997497558594" y="0" font-family="Virgil, Segoe UI Emoji" font-size="20px" fill="#1e1e1e" text-anchor="middle" style="white-space: pre;" direction="ltr" dominant-baseline="text-before-edge">Err </text><text x="35.48997497558594" y="25" font-family="Virgil, Segoe UI Emoji" font-size="20px" fill="#1e1e1e" text-anchor="middle" style="white-space: pre;" direction="ltr" dominant-baseline="text-before-edge">Channel</text></g><g stroke-linecap="round"><g transform="translate(639.103288459426 650.044052703579) rotate(0 31.61397087336286 57.02894846315337)"><path d="M1.13 0.12 C11.42 3.27, 52.14 0.29, 62.16 19.45 C72.18 38.61, 61.71 99.14, 61.26 115.09" stroke="#1e1e1e" stroke-width="4.5" fill="none" stroke-dasharray="8 12"></path></g><g transform="translate(639.103288459426 650.044052703579) rotate(0 31.61397087336286 57.02894846315337)"><path d="M54.97 90.9 C57.39 97.17, 59.27 108.98, 61.26 115.09" stroke="#1e1e1e" stroke-width="4.5" fill="none"></path></g><g transform="translate(639.103288459426 650.044052703579) rotate(0 31.61397087336286 57.02894846315337)"><path d="M71.99 92.51 C68.7 98.41, 64.86 109.67, 61.26 115.09" stroke="#1e1e1e" stroke-width="4.5" fill="none"></path></g></g><mask></mask><g stroke-linecap="round"><g transform="translate(267.87894038943364 654.4212999454701) rotate(0 -41.17973557943378 58.51090661408364)"><path d="M-0.61 0.89 C-14.25 3.13, -74.97 -6.45, -81.91 12.94 C-88.84 32.33, -48.54 99.79, -42.22 117.24" stroke="#1e1e1e" stroke-width="4.5" fill="none" stroke-dasharray="8 12"></path></g><g transform="translate(267.87894038943364 654.4212999454701) rotate(0 -41.17973557943378 58.51090661408364)"><path d="M-60.05 99.72 C-53.47 105.65, -49.84 111.75, -42.22 117.24" stroke="#1e1e1e" stroke-width="4.5" fill="none"></path></g><g transform="translate(267.87894038943364 654.4212999454701) rotate(0 -41.17973557943378 58.51090661408364)"><path d="M-44.62 92.36 C-42.55 100.34, -43.39 108.58, -42.22 117.24" stroke="#1e1e1e" stroke-width="4.5" fill="none"></path></g></g><mask></mask><g stroke-linecap="round" transform="translate(10 10) rotate(0 454.22626083060254 98.99316895488536)"><path d="M0.5 -0.02 L909.65 0.58 L909.95 197.36 L-0.31 197.12" stroke="none" stroke-width="0" fill="#ffffff"></path><path d="M0 0 C307.82 -3.18, 616.82 -2.45, 908.45 0 M908.45 0 C908.24 46.98, 909.22 97.01, 908.45 197.99 M908.45 197.99 C681.15 196.54, 453.79 196.21, 0 197.99 M0 197.99 C0.05 134.24, -1.86 71.46, 0 0" stroke="#1e1e1e" stroke-width="4.5" fill="none" stroke-dasharray="8 12"></path></g><g transform="translate(142.48521618851572 113.62519241855063) rotate(0 61.811973571777344 22.5)"><text x="0" y="0" font-family="Virgil, Segoe UI Emoji" font-size="36px" fill="#1e1e1e" text-anchor="start" style="white-space: pre;" direction="ltr" dominant-baseline="text-before-edge">OpenAI</text></g><g transform="translate(308.35048789396126 57.78108204047325) rotate(0 57.887977600097656 22.5)"><text x="0" y="0" font-family="Virgil, Segoe UI Emoji" font-size="36px" fill="#1e1e1e" text-anchor="start" style="white-space: pre;" direction="ltr" dominant-baseline="text-before-edge">Cohere</text></g><g transform="translate(440.1111906729071 134.3967275584938) rotate(0 78.83997344970703 22.5)"><text x="0" y="0" font-family="Virgil, Segoe UI Emoji" font-size="36px" fill="#1e1e1e" text-anchor="start" style="white-space: pre;" direction="ltr" dominant-baseline="text-before-edge">Anthropic</text></g><g transform="translate(521.4406055418456 52.36424010052579) rotate(0 82.76396179199219 22.5)"><text x="0" y="0" font-family="Virgil, Segoe UI Emoji" font-size="36px" fill="#1e1e1e" text-anchor="start" style="white-space: pre;" direction="ltr" dominant-baseline="text-before-edge">Deepgram</text></g><g transform="translate(659.4314394350286 116.62777904071095) rotate(0 45.413978576660156 22.5)"><text x="0" y="0" font-family="Virgil, Segoe UI Emoji" font-size="36px" fill="#1e1e1e" text-anchor="start" style="white-space: pre;" direction="ltr" dominant-baseline="text-before-edge">11labs</text></g><g stroke-linecap="round"><g transform="translate(368.0495063455163 579.4599719897886) rotate(0 1.8574394964338694 -186.95805469441407)"><path d="M0 0 C0.66 -86.16, 3.82 -172.81, 3.71 -373.92" stroke="#1e1e1e" stroke-width="4.5" fill="none" stroke-dasharray="8 12"></path></g><g transform="translate(368.0495063455163 579.4599719897886) rotate(0 1.8574394964338694 -186.95805469441407)"><path d="M-8.22 -23.61 C-8.2 -17.84, -2.53 -12.83, 0 0" stroke="#1e1e1e" stroke-width="4.5" fill="none"></path></g><g transform="translate(368.0495063455163 579.4599719897886) rotate(0 1.8574394964338694 -186.95805469441407)"><path d="M8.88 -23.37 C4.95 -17.48, 6.67 -12.53, 0 0" stroke="#1e1e1e" stroke-width="4.5" fill="none"></path></g><g transform="translate(368.0495063455163 579.4599719897886) rotate(0 1.8574394964338694 -186.95805469441407)"><path d="M12.17 -350.39 C8.52 -355.34, 10.34 -361.22, 3.71 -373.92" stroke="#1e1e1e" stroke-width="4.5" fill="none"></path></g><g transform="translate(368.0495063455163 579.4599719897886) rotate(0 1.8574394964338694 -186.95805469441407)"><path d="M-4.93 -350.46 C-4.63 -355.56, 1.14 -361.43, 3.71 -373.92" stroke="#1e1e1e" stroke-width="4.5" fill="none"></path></g></g><mask></mask><g stroke-linecap="round"><g transform="translate(551.9492468122546 575.9279636133108) rotate(0 2.526788159575915 -184.49421201331594)"><path d="M0 0 C-0.18 -114.04, 2.33 -226.32, 5.05 -368.99" stroke="#1e1e1e" stroke-width="4.5" fill="none" stroke-dasharray="8 12"></path></g><g transform="translate(551.9492468122546 575.9279636133108) rotate(0 2.526788159575915 -184.49421201331594)"><path d="M-8.29 -23.58 C-6.1 -17.78, -2.01 -9.14, 0 0" stroke="#1e1e1e" stroke-width="4.5" fill="none"></path></g><g transform="translate(551.9492468122546 575.9279636133108) rotate(0 2.526788159575915 -184.49421201331594)"><path d="M8.81 -23.4 C5.75 -17.74, 4.6 -9.16, 0 0" stroke="#1e1e1e" stroke-width="4.5" fill="none"></path></g><g transform="translate(551.9492468122546 575.9279636133108) rotate(0 2.526788159575915 -184.49421201331594)"><path d="M13.15 -345.34 C10.02 -354.11, 9.09 -359.95, 5.05 -368.99" stroke="#1e1e1e" stroke-width="4.5" fill="none"></path></g><g transform="translate(551.9492468122546 575.9279636133108) rotate(0 2.526788159575915 -184.49421201331594)"><path d="M-3.95 -345.66 C-1.83 -354.24, 2.48 -359.99, 5.05 -368.99" stroke="#1e1e1e" stroke-width="4.5" fill="none"></path></g></g><mask></mask><g transform="translate(656.3608083710618 522.757661997982) rotate(0 90.70596313476562 17.5)"><text x="0" y="0" font-family="Virgil, Segoe UI Emoji" font-size="28px" fill="#1e1e1e" text-anchor="start" style="white-space: pre;" direction="ltr" dominant-baseline="text-before-edge">Async Router</text></g><g transform="translate(1224.5299228588601 767.1155696920989) rotate(0 64.78994750976562 12.5)"><text x="0" y="0" font-family="Virgil, Segoe UI Emoji" font-size="20px" fill="#1e1e1e" text-anchor="start" style="white-space: pre;" direction="ltr" dominant-baseline="text-before-edge">Async Router</text></g></svg>